# Blender 3.3.1
# www.blender.org
mtllib shack.mtl
o Cube
v 2.000000 1.000000 -1.000000
v 2.000000 -1.000000 -1.000000
v 2.000000 1.000000 1.000000
v 2.000000 -1.000000 1.000000
v -2.000000 1.000000 -1.000000
v -2.000000 -1.000000 -1.000000
v -2.000000 1.000000 1.000000
v -2.000000 -1.000000 1.000000
v -0.535463 -1.000000 1.000000
v 0.714365 -1.000000 1.000000
v -0.773791 -0.123456 1.000000
v -0.582505 0.530800 1.000000
v 0.174287 0.710513 1.000000
v 0.984271 0.421084 1.000000
v 1.021548 -0.140097 1.000000
vn -0.0000 1.0000 -0.0000
vn -0.0000 -0.0000 1.0000
vn -1.0000 -0.0000 -0.0000
vn -0.0000 -1.0000 -0.0000
vn 1.0000 -0.0000 -0.0000
vn -0.0000 -0.0000 -1.0000
vt 0.000000 0.000000
vt 1.000000 0.000000
vt 1.000000 1.000000
vt 0.000000 0.000000
vt 1.000000 0.000000
vt 0.000000 1.000000
vt 0.000000 1.000000
vt 1.000000 0.000000
vt 1.000000 1.000000
vt 0.000000 0.000000
vt 1.000000 1.000000
vt 0.000000 1.000000
vt 1.000000 1.000000
vt 1.000000 0.000000
vt 0.000000 1.000000
vt 0.000000 0.000000
vt 1.000000 1.000000
vt 1.000000 0.000000
vt 0.000000 0.000000
vt 0.000000 1.000000
vt 0.000000 0.633866
vt 0.366134 1.000000
vt 0.000000 0.321409
vt 0.678591 1.000000
vt 0.438272 0.693448
vt 0.765400 0.645626
vt 0.855257 0.456428
vt 0.710542 0.253932
vt 0.429951 0.244613
s 0
usemtl Material
f 5/14/1 3/7/1 1/1/1
f 3/8/2 7/17/2 13/27/2
f 7/18/3 6/15/3 8/19/3
f 2/5/4 10/24/4 9/22/4
f 1/2/5 4/12/5 2/4/5
f 5/14/6 2/6/6 6/16/6
f 5/14/1 7/17/1 3/7/1
f 10/23/2 4/10/2 3/8/2
f 7/17/2 8/20/2 9/21/2
f 7/17/2 9/21/2 11/25/2
f 15/29/2 10/23/2 3/8/2
f 14/28/2 15/29/2 3/8/2
f 7/17/2 11/25/2 12/26/2
f 13/27/2 14/28/2 3/8/2
f 7/17/2 12/26/2 13/27/2
f 7/18/3 5/13/3 6/15/3
f 8/20/4 6/16/4 2/5/4
f 2/5/4 4/11/4 10/24/4
f 9/22/4 8/20/4 2/5/4
f 1/2/5 3/9/5 4/12/5
f 5/14/6 1/3/6 2/6/6
