# Blender 3.3.1
# www.blender.org
mtllib shack.mtl
o Cube
v 2.000000 1.000000 -1.000000
v 2.000000 -1.000000 -1.000000
v 2.000000 1.000000 1.000000
v 2.000000 -1.000000 1.000000
v -2.000000 1.000000 -1.000000
v -2.000000 -1.000000 -1.000000
v -2.000000 1.000000 1.000000
v -2.000000 -1.000000 1.000000
v 0.533333 -1.000000 -1.000000
v -0.533333 -1.000000 -1.000000
v 0.533333 1.000000 1.000000
v -0.533333 1.000000 1.000000
v -0.533333 -1.000000 1.000000
v 0.533333 -1.000000 1.000000
v -0.533333 1.000000 -1.000000
v 0.533333 1.000000 -1.000000
v 2.000000 0.510204 -1.000000
v -2.000000 0.510204 1.000000
v 2.000000 0.510204 1.000000
v -2.000000 0.510204 -1.000000
v -0.533333 0.510204 -1.000000
v 0.533333 0.510204 -1.000000
v 0.533333 0.510204 1.000000
v -0.533333 0.510204 1.000000
vn -0.0000 1.0000 -0.0000
vn -0.0000 -0.0000 1.0000
vn -1.0000 -0.0000 -0.0000
vn -0.0000 -1.0000 -0.0000
vn 1.0000 -0.0000 -0.0000
vn -0.0000 -0.0000 -1.0000
vt 0.999900 0.999900
vt 0.000086 0.999914
vt 0.999900 0.000100
vt 0.000086 0.000086
vt 0.000100 0.999900
vt 0.000086 0.000086
vt 0.500000 0.999929
vt 0.000086 0.999914
vt 0.500000 0.000071
vt 0.000100 0.000100
vt 0.000071 0.000071
vt 0.999900 0.999900
vt 0.733293 0.999914
vt 0.733293 0.000086
vt 0.000100 0.999900
vt 0.500000 0.000071
vt 0.000086 0.999914
vt 0.999900 0.000100
vt 0.500000 0.999929
vt 0.000086 0.000086
vt 0.733294 0.000086
vt 0.000071 0.366686
vt 0.000073 0.000073
vt 0.533328 0.000073
vt 0.000071 0.633314
vt 0.000086 0.000086
vt 0.733293 0.000086
vt 0.000068 0.999932
vt 0.500000 0.633314
vt 0.733293 0.999914
vt 0.000068 0.000068
vt 0.500000 0.366686
vt 0.733293 0.000086
vt 0.500000 0.633314
vt 0.375000 0.916667
vt 0.375000 0.833333
vt 0.500000 0.366686
vt 0.733293 0.999914
vt 0.000086 0.999914
vt 0.533328 0.999927
vt 0.000071 0.366686
vt 0.733294 0.999914
vt 0.000073 0.999927
vt 0.000071 0.633315
vt 0.000086 0.755058
vt 0.999900 0.755051
vt 0.755051 0.000100
vt 0.000086 0.755058
vt 0.000086 0.244942
vt 0.000100 0.755051
vt 0.733293 0.755058
vt 0.755051 0.999900
vt 0.533328 0.755065
vt 0.000086 0.755058
vt 0.000073 0.755065
vt 0.733294 0.755058
vt 0.459189 0.999932
vt 0.563776 0.833333
vt 0.733293 0.244942
vt 0.459189 0.000068
vt 0.563776 0.916667
vt 0.733293 0.755058
s 0
usemtl Material
f 5/11/1 12/32/1 15/41/1
f 12/30/2 18/48/2 24/62/2
f 7/18/3 20/52/3 18/47/3
f 2/4/4 14/37/4 9/22/4
f 1/1/5 19/50/5 17/46/5
f 16/42/6 17/45/6 22/56/6
f 5/13/6 21/54/6 20/51/6
f 15/40/6 22/55/6 21/53/6
f 10/25/4 8/19/4 6/15/4
f 9/22/4 13/34/4 10/25/4
f 3/6/2 23/59/2 19/49/2
f 11/28/2 24/60/2 23/57/2
f 16/44/1 3/7/1 1/2/1
f 15/41/1 11/29/1 16/44/1
f 13/35/6 23/58/6 14/36/6
f 19/49/2 14/38/2 4/8/2
f 21/53/6 9/23/6 10/24/6
f 20/51/6 10/26/6 6/14/6
f 22/56/6 2/4/6 9/21/6
f 17/46/5 4/10/5 2/3/5
f 18/47/3 6/15/3 8/20/3
f 24/62/2 8/20/2 13/33/2
f 5/11/1 7/16/1 12/32/1
f 12/30/2 7/17/2 18/48/2
f 7/18/3 5/12/3 20/52/3
f 2/4/4 4/9/4 14/37/4
f 1/1/5 3/5/5 19/50/5
f 16/42/6 1/2/6 17/45/6
f 5/13/6 15/39/6 21/54/6
f 15/40/6 16/43/6 22/55/6
f 10/25/4 13/34/4 8/19/4
f 9/22/4 14/37/4 13/34/4
f 3/6/2 11/27/2 23/59/2
f 11/28/2 12/31/2 24/60/2
f 16/44/1 11/29/1 3/7/1
f 15/41/1 12/32/1 11/29/1
f 13/35/6 24/61/6 23/58/6
f 19/49/2 23/59/2 14/38/2
f 21/53/6 22/55/6 9/23/6
f 20/51/6 21/54/6 10/26/6
f 22/56/6 17/45/6 2/4/6
f 17/46/5 19/50/5 4/10/5
f 18/47/3 20/52/3 6/15/3
f 24/62/2 18/48/2 8/20/2
